<svg width="24" height="25" viewBox="0 0 24 25" fill="none" xmlns="http://www.w3.org/2000/svg">
<path d="M19 11.9703L7.14 11.9703L10.77 7.61031C10.9397 7.40609 11.0214 7.14281 10.997 6.87838C10.9726 6.61396 10.8442 6.37005 10.64 6.20031C10.4358 6.03057 10.1725 5.94891 9.90808 5.97329C9.64365 5.99767 9.39974 6.12609 9.23 6.33031L4.23 12.3303C4.19636 12.378 4.16628 12.4282 4.14 12.4803C4.14 12.5303 4.14 12.5603 4.07 12.6103C4.02467 12.725 4.00094 12.847 4 12.9703C4.00094 13.0936 4.02467 13.2156 4.07 13.3303C4.07 13.3803 4.07 13.4103 4.14 13.4603C4.16628 13.5124 4.19636 13.5626 4.23 13.6103L9.23 19.6103C9.32402 19.7232 9.44176 19.814 9.57485 19.8762C9.70793 19.9384 9.85309 19.9705 10 19.9703C10.2337 19.9708 10.4601 19.8894 10.64 19.7403C10.7413 19.6564 10.825 19.5533 10.8863 19.4369C10.9477 19.3206 10.9855 19.1933 10.9975 19.0623C11.0096 18.9313 10.9957 18.7992 10.9567 18.6736C10.9176 18.548 10.8542 18.4314 10.77 18.3303L7.14 13.9703L19 13.9703C19.2652 13.9703 19.5196 13.8649 19.7071 13.6774C19.8946 13.4899 20 13.2355 20 12.9703C20 12.7051 19.8946 12.4507 19.7071 12.2632C19.5196 12.0757 19.2652 11.9703 19 11.9703Z" fill="#121212"/>
</svg>
