<svg width="41" height="41" viewBox="0 0 41 41" fill="none" xmlns="http://www.w3.org/2000/svg">
<rect x="0.22998" y="0.719971" width="40" height="40" rx="20" fill="#F7F7F7"/>
<path d="M11.8967 25.6584C11.8967 25.1522 12.0257 24.6545 12.2715 24.212L17.4264 14.9331C17.8834 14.1106 18.6784 13.5303 19.6011 13.3458V13.3458C20.0163 13.2627 20.4438 13.2627 20.859 13.3458V13.3458C21.7817 13.5303 22.5767 14.1106 23.0337 14.9331L28.1886 24.212C28.4344 24.6545 28.5634 25.1522 28.5634 25.6584V25.6584C28.5634 27.3032 27.23 28.6366 25.5851 28.6366H14.875C13.2301 28.6366 11.8967 27.3032 11.8967 25.6584V25.6584Z" stroke="#F23152" stroke-width="1.5"/>
<path d="M20.2302 18.2199L20.2302 21.5532" stroke="#F23152" stroke-width="1.5" stroke-linecap="round" stroke-linejoin="round"/>
<path d="M20.2302 24.0533L20.2302 24.47" stroke="#F23152" stroke-width="1.5" stroke-linecap="round" stroke-linejoin="round"/>
</svg>
