<svg width="41" height="41" viewBox="0 0 41 41" fill="none" xmlns="http://www.w3.org/2000/svg">
<rect x="0.22998" y="0.719971" width="40" height="40" rx="20" fill="#F7F7F7"/>
<g clip-path="url(#clip0_8_594)">
<path d="M18.5632 14.8866C18.5632 14.4446 18.7388 14.0207 19.0514 13.7081C19.3639 13.3956 19.7879 13.22 20.2299 13.22C20.6719 13.22 21.0958 13.3956 21.4084 13.7081C21.721 14.0207 21.8966 14.4446 21.8966 14.8866C22.8536 15.3392 23.6694 16.0436 24.2566 16.9244C24.8438 17.8052 25.1803 18.8292 25.2299 19.8866V22.3866C25.2926 22.9047 25.4761 23.4009 25.7656 23.8351C26.0551 24.2693 26.4424 24.6295 26.8966 24.8866H13.5632C14.0173 24.6295 14.4047 24.2693 14.6942 23.8351C14.9837 23.4009 15.1672 22.9047 15.2299 22.3866V19.8866C15.2795 18.8292 15.616 17.8052 16.2032 16.9244C16.7904 16.0436 17.6062 15.3392 18.5632 14.8866" stroke="#1D1D1F" stroke-width="1.5" stroke-linecap="round" stroke-linejoin="round"/>
<path d="M17.73 24.8867V25.7201C17.73 26.3831 17.9934 27.019 18.4622 27.4878C18.9311 27.9567 19.5669 28.2201 20.23 28.2201C20.893 28.2201 21.5289 27.9567 21.9977 27.4878C22.4666 27.019 22.73 26.3831 22.73 25.7201V24.8867" stroke="#1D1D1F" stroke-width="1.5" stroke-linecap="round" stroke-linejoin="round"/>
</g>
<defs>
<clipPath id="clip0_8_594">
<rect width="20" height="20" fill="white" transform="translate(10.23 10.72)"/>
</clipPath>
</defs>
</svg>
