<svg width="28" height="28" viewBox="0 0 28 28" fill="none" xmlns="http://www.w3.org/2000/svg">
<path d="M13.8333 11.6667C16.0885 11.6667 17.9167 9.8385 17.9167 7.58333C17.9167 5.32817 16.0885 3.5 13.8333 3.5C11.5782 3.5 9.75 5.32817 9.75 7.58333C9.75 9.8385 11.5782 11.6667 13.8333 11.6667Z" stroke="white" stroke-width="2" stroke-linejoin="round"/>
<path d="M23.3333 17.5V23.3333" stroke="white" stroke-width="1.5" stroke-linecap="round" stroke-linejoin="round"/>
<path d="M25.6667 19.8333L23.3333 17.5L21 19.8333" stroke="white" stroke-width="1.5" stroke-linecap="round" stroke-linejoin="round"/>
<path d="M17.5 16.3333H13.4167C13.2619 16.3333 13.1845 16.3333 13.1191 16.3343C8.8033 16.4049 5.3217 19.8866 5.25107 24.2024C5.25 24.2678 5.25 24.3452 5.25 24.4999V24.4999H17.5" stroke="white" stroke-width="2" stroke-linecap="round" stroke-linejoin="round"/>
</svg>
