<svg width="49" height="48" viewBox="0 0 49 48" fill="none" xmlns="http://www.w3.org/2000/svg">
<rect x="0.22998" width="48" height="48" rx="24" fill="#F7F7F7"/>
<g clip-path="url(#clip0_8_442)">
<path d="M24.23 23C26.4391 23 28.23 21.2091 28.23 19C28.23 16.7909 26.4391 15 24.23 15C22.0208 15 20.23 16.7909 20.23 19C20.23 21.2091 22.0208 23 24.23 23Z" stroke="#939199" stroke-width="1.5" stroke-linecap="round" stroke-linejoin="round"/>
<path d="M18.23 33V31C18.23 29.9391 18.6514 28.9217 19.4016 28.1716C20.1517 27.4214 21.1691 27 22.23 27H26.23C27.2908 27 28.3083 27.4214 29.0584 28.1716C29.8086 28.9217 30.23 29.9391 30.23 31V33" stroke="#939199" stroke-width="1.5" stroke-linecap="round" stroke-linejoin="round"/>
</g>
<defs>
<clipPath id="clip0_8_442">
<rect width="24" height="24" fill="white" transform="translate(12.23 12)"/>
</clipPath>
</defs>
</svg>
