<svg width="21" height="21" viewBox="0 0 21 21" fill="none" xmlns="http://www.w3.org/2000/svg">
<g clip-path="url(#clip0_8_503)">
<path d="M10.2302 20.8511C15.7531 20.8511 20.2302 16.3739 20.2302 10.8511C20.2302 5.32824 15.7531 0.851074 10.2302 0.851074C4.70739 0.851074 0.230225 5.32824 0.230225 10.8511C0.230225 16.3739 4.70739 20.8511 10.2302 20.8511Z" fill="#8DC351"/>
<path d="M14.9135 9.1576C14.4401 8.9176 13.8701 8.8676 13.2101 9.01093C13.7801 8.2676 13.8001 7.45426 13.2701 6.5776C13.0801 6.2576 12.8501 6.01093 12.5768 5.84093C12.3035 5.6676 12.0035 5.57093 11.6668 5.5476C11.3335 5.52426 10.9901 5.5476 10.6468 5.61426C10.3001 5.68426 9.92014 5.79426 9.50347 5.95093L8.59014 4.0376L7.42014 4.59426L8.3068 6.45426C8.10347 6.55093 7.7968 6.70426 7.3868 6.91093L6.49347 5.03426L5.32347 5.59093L6.2368 7.50426C6.07347 7.5876 5.8268 7.7076 5.50347 7.86426L3.89014 8.62426L4.48347 9.87093L5.3268 9.4676C5.71014 9.28426 6.02014 9.3476 6.25014 9.66093L7.29014 11.8409C7.34014 11.8176 7.38347 11.8009 7.4168 11.7909L7.2968 11.8476L8.75347 14.9009C8.8368 15.1776 8.75014 15.3776 8.4968 15.4976L7.65347 15.9009L8.08014 17.4043L9.60014 16.6809C9.6968 16.6343 9.8368 16.5709 10.0201 16.4843C10.2035 16.4009 10.3401 16.3376 10.4335 16.2909L11.3568 18.2276L12.5268 17.6709L11.6135 15.7576C11.8301 15.6609 12.1401 15.5176 12.5435 15.3243L13.4535 17.2309L14.6235 16.6743L13.7001 14.7376C14.1068 14.5209 14.4568 14.3043 14.7501 14.0976C15.0435 13.8876 15.3101 13.6543 15.5468 13.3943C15.7835 13.1343 15.9568 12.8709 16.0701 12.5976C16.1835 12.3276 16.2401 12.0243 16.2368 11.6876C16.2368 11.3543 16.1668 10.9976 16.0301 10.6209C15.7601 9.88426 15.3901 9.39426 14.9135 9.1576ZM8.0668 8.26426C8.10347 8.2476 8.20014 8.1976 8.36347 8.1176C8.5268 8.0376 8.66347 7.9676 8.77014 7.91426C8.8768 7.86093 9.0268 7.7976 9.22014 7.72426C9.41347 7.65093 9.5768 7.5976 9.7168 7.56093C9.8568 7.52426 10.0135 7.50093 10.1935 7.4876C10.3735 7.47426 10.5268 7.4876 10.6601 7.5276C10.7901 7.5676 10.9201 7.6376 11.0435 7.7376C11.1668 7.8376 11.2701 7.97093 11.3501 8.1376C11.4168 8.28093 11.4568 8.42093 11.4668 8.5576C11.4768 8.69426 11.4535 8.82426 11.4001 8.9476C11.3468 9.07093 11.2868 9.18426 11.2168 9.2876C11.1468 9.39093 11.0468 9.4976 10.9168 9.60426C10.7835 9.71093 10.6668 9.80093 10.5668 9.87426C10.4635 9.9476 10.3335 10.0276 10.1701 10.1143C10.0068 10.2009 9.88347 10.2676 9.7968 10.3109C9.71347 10.3543 9.59347 10.4109 9.44347 10.4809C9.29347 10.5509 9.20347 10.5909 9.18014 10.6009L8.0668 8.26426ZM13.7268 11.9143C13.7335 12.0543 13.7201 12.1843 13.6868 12.3076C13.6501 12.4309 13.5868 12.5543 13.4968 12.6776C13.4035 12.8043 13.3101 12.9143 13.2135 13.0076C13.1168 13.1043 12.9935 13.2076 12.8435 13.3143C12.6935 13.4243 12.5601 13.5143 12.4401 13.5843C12.3235 13.6576 12.1801 13.7376 12.0101 13.8276C11.8401 13.9176 11.7101 13.9843 11.6135 14.0309C11.5168 14.0776 11.3935 14.1343 11.2468 14.2009C11.1001 14.2676 11.0035 14.3109 10.9635 14.3309L9.74014 11.7643C9.78014 11.7443 9.90014 11.6843 10.0968 11.5843C10.2935 11.4843 10.4568 11.4043 10.5835 11.3443C10.7101 11.2843 10.8868 11.2076 11.1168 11.1176C11.3468 11.0276 11.5435 10.9609 11.7101 10.9176C11.8768 10.8743 12.0635 10.8443 12.2735 10.8209C12.4835 10.7976 12.6668 10.8076 12.8201 10.8443C12.9735 10.8809 13.1235 10.9543 13.2668 11.0609C13.4101 11.1676 13.5268 11.3109 13.6135 11.4909C13.6835 11.6343 13.7201 11.7743 13.7268 11.9143Z" fill="white"/>
</g>
<defs>
<clipPath id="clip0_8_503">
<rect width="20" height="20" fill="white" transform="translate(0.22998 0.851074)"/>
</clipPath>
</defs>
</svg>
