<svg width="21" height="21" viewBox="0 0 21 21" fill="none" xmlns="http://www.w3.org/2000/svg">
<g clip-path="url(#clip0_8_460)">
<mask id="mask0_8_460" style="mask-type:luminance" maskUnits="userSpaceOnUse" x="0" y="4" width="21" height="13">
<path d="M20.231 4.07617H0.230957V16.569H20.231V4.07617Z" fill="white"/>
</mask>
<g mask="url(#mask0_8_460)">
<path fill-rule="evenodd" clip-rule="evenodd" d="M20.1917 15.9216C20.1917 16.2895 19.8913 16.59 19.5234 16.59H0.875788C0.507909 16.59 0.20752 16.2895 0.20752 15.9216V4.76537C0.20752 4.39742 0.507909 4.09692 0.875788 4.09692H19.5234C19.8913 4.09692 20.1917 4.39742 20.1917 4.76537L20.1917 15.9216Z" fill="#14477C"/>
<path fill-rule="evenodd" clip-rule="evenodd" d="M12.5965 13.9276L12.7804 13.924L12.9647 13.9127L13.1447 13.8863L13.3212 13.8563L13.4939 13.8149L13.6666 13.7701L13.8317 13.7098L13.997 13.6462L14.1545 13.5745L14.3084 13.4958L14.4587 13.4093L14.6052 13.3156L14.7478 13.2143L14.883 13.1091L15.0105 12.9965L15.138 12.8761L15.2545 12.7522L15.3674 12.6208L15.4761 12.4855L15.5775 12.3468L15.6676 12.2003L15.7578 12.0502L15.8328 11.8962L15.9079 11.7348L15.9717 11.5732L16.0282 11.4043L16.0769 11.2352L16.118 11.0626L16.1483 10.8822L16.1709 10.7058L16.1857 10.5216L16.1893 10.3379L16.1857 10.1537L16.1709 9.96966L16.1483 9.79316L16.118 9.61693L16.0769 9.44395L16.0282 9.27517L15.9717 9.10602L15.9079 8.94465L15.8328 8.78682L15.7578 8.63291L15.6676 8.48275L15.5775 8.33629L15.4761 8.19745L15.3674 8.06224L15.2545 7.93086L15.138 7.80693L15.0105 7.69045L14.883 7.57781L14.7478 7.46904L14.6052 7.37126L14.4587 7.27732L14.3084 7.19112L14.1545 7.11207L13.997 7.04074L13.8317 6.97711L13.6666 6.92069L13.4939 6.87192L13.3212 6.83061L13.1447 6.80059L12.9647 6.77802L12.7804 6.7629L12.5965 6.75928L12.4126 6.7629L12.2325 6.77802L12.0522 6.80059L11.8759 6.83061L11.703 6.87192L11.5304 6.92069L11.365 6.97711L11.2037 7.04074L11.0459 7.11207L10.892 7.19112L10.7419 7.27732L10.5955 7.37126L10.4567 7.46904L10.3212 7.57781L10.1899 7.69045L10.0662 7.80693L9.94589 7.93086L9.83718 8.06224L9.72813 8.19745L9.63059 8.33629L9.53672 8.48275L9.45053 8.63291L9.37151 8.78682L9.30022 8.94465L9.23632 9.10602L9.18016 9.27517L9.13145 9.44395L9.08984 9.61693L9.0601 9.79316L9.03747 9.96966L9.02239 10.1537L9.01855 10.3379L9.02239 10.5216L9.03747 10.7058L9.0601 10.8822L9.08984 11.0626L9.13145 11.2352L9.18016 11.4043L9.23632 11.5732L9.30022 11.7348L9.37151 11.8962L9.45053 12.0502L9.53672 12.2003L9.63059 12.3468L9.72813 12.4855L9.83718 12.6208L9.94589 12.7522L10.0662 12.8761L10.1899 12.9965L10.3212 13.1091L10.4567 13.2143L10.5955 13.3156L10.7419 13.4093L10.892 13.4958L11.0459 13.5745L11.2037 13.6462L11.365 13.7098L11.5304 13.7701L11.703 13.8149L11.8759 13.8563L12.0522 13.8863L12.2325 13.9127L12.4126 13.924L12.5965 13.9276Z" fill="#FBB230"/>
<path fill-rule="evenodd" clip-rule="evenodd" d="M7.80221 13.9276L7.98617 13.924L8.16622 13.9127L8.34662 13.8863L8.52284 13.8563L8.69574 13.8149L8.86863 13.7701L9.03362 13.7098L9.19493 13.6462L9.35276 13.5745L9.50662 13.4958L9.65677 13.4093L9.80319 13.3156L9.94198 13.2143L10.0775 13.1091L10.2088 12.9965L10.3324 12.8761L10.4528 12.7522L10.5618 12.6208L10.6706 12.4855L10.7681 12.3468L10.8619 12.2003L10.9481 12.0502L11.0271 11.8962L11.0985 11.7348L11.1623 11.5732L11.2185 11.4043L11.2675 11.2352L11.3088 11.0626L11.3386 10.8822L11.3611 10.7058L11.3763 10.5216L11.3801 10.3379L11.3763 10.1537L11.3611 9.96966L11.3386 9.79316L11.3088 9.61693L11.2675 9.44395L11.2185 9.27517L11.1623 9.10602L11.0985 8.94465L11.0271 8.78682L10.9481 8.63291L10.8619 8.48275L10.7681 8.33629L10.6706 8.19745L10.5618 8.06224L10.4528 7.93086L10.3324 7.80693L10.2088 7.69045L10.0775 7.57781L9.94198 7.46904L9.80319 7.37126L9.65677 7.27732L9.50662 7.19112L9.35276 7.11207L9.19493 7.04074L9.03362 6.97711L8.86863 6.92069L8.69574 6.87192L8.52284 6.83061L8.34662 6.80059L8.16622 6.77802L7.98617 6.7629L7.80221 6.75928L7.61831 6.7629L7.43413 6.77802L7.25402 6.80059L7.07757 6.83061L6.90513 6.87192L6.73224 6.92069L6.56703 6.97711L6.40181 7.04074L6.24427 7.11207L6.09041 7.19112L5.94003 7.27732L5.79386 7.37126L5.65117 7.46904L5.51578 7.57781L5.38826 7.69045L5.26073 7.80693L5.14428 7.93086L5.03137 8.06224L4.92266 8.19745L4.82132 8.33629L4.73123 8.48275L4.64097 8.63291L4.56602 8.78682L4.49088 8.94465L4.42701 9.10602L4.37085 9.27517L4.3218 9.44395L4.28441 9.61693L4.25048 9.79316L4.22821 9.96966L4.21305 10.1537L4.20947 10.3379L4.21305 10.5216L4.22821 10.7058L4.25048 10.8822L4.28441 11.0626L4.3218 11.2352L4.37085 11.4043L4.42701 11.5732L4.49088 11.7348L4.56602 11.8962L4.64097 12.0502L4.73123 12.2003L4.82132 12.3468L4.92266 12.4855L5.03137 12.6208L5.14428 12.7522L5.26073 12.8761L5.38826 12.9965L5.51578 13.1091L5.65117 13.2143L5.79386 13.3156L5.94003 13.4093L6.09041 13.4958L6.24427 13.5745L6.40181 13.6462L6.56703 13.7098L6.73224 13.7701L6.90513 13.8149L7.07757 13.8563L7.25402 13.8863L7.43413 13.9127L7.61831 13.924L7.80221 13.9276Z" fill="#EB2230"/>
<path fill-rule="evenodd" clip-rule="evenodd" d="M9.78076 8.13354H11.6844V7.93823H9.94598L9.78076 8.13354Z" fill="#FBB230"/>
<path fill-rule="evenodd" clip-rule="evenodd" d="M9.49609 8.56542H11.685V8.37012H9.60876L9.49609 8.56542Z" fill="#FBB230"/>
<path fill-rule="evenodd" clip-rule="evenodd" d="M9.28174 8.99755H11.6846V8.80225H9.36816L9.28174 8.99755Z" fill="#FBB230"/>
<path fill-rule="evenodd" clip-rule="evenodd" d="M9.13525 9.42898H11.6846V9.23755H9.19525L9.13525 9.42898Z" fill="#FBB230"/>
<path fill-rule="evenodd" clip-rule="evenodd" d="M9.2209 11.5246H11.6914V11.3293H9.16113L9.2209 11.5246Z" fill="#FBB230"/>
<path fill-rule="evenodd" clip-rule="evenodd" d="M9.40155 11.9565H11.6918V11.7612H9.31152L9.40155 11.9565Z" fill="#FBB230"/>
<path fill-rule="evenodd" clip-rule="evenodd" d="M9.66052 12.3882H11.6916V12.1929H9.53662L9.66052 12.3882Z" fill="#FBB230"/>
<path fill-rule="evenodd" clip-rule="evenodd" d="M10.014 12.8201H11.6921V12.6248H9.84131L10.014 12.8201Z" fill="#FBB230"/>
<path fill-rule="evenodd" clip-rule="evenodd" d="M9.04883 9.86104H11.6844V9.66943H9.08631L9.04883 9.86104Z" fill="#FBB230"/>
<path fill-rule="evenodd" clip-rule="evenodd" d="M10.6553 11.0927H11.6615V10.8975H10.693L10.6553 11.0927Z" fill="#FBB230"/>
<path fill-rule="evenodd" clip-rule="evenodd" d="M10.7344 10.6606H11.6618V10.4653H10.7721L10.7344 10.6606Z" fill="#FBB230"/>
<path fill-rule="evenodd" clip-rule="evenodd" d="M8.98145 10.4653H9.2442V10.6606H8.99669L8.98145 10.4653Z" fill="#FBB230"/>
<path fill-rule="evenodd" clip-rule="evenodd" d="M15.8445 12.3579C15.9385 12.3579 16.0136 12.4366 16.0136 12.5267C16.0136 12.6207 15.9385 12.6958 15.8445 12.6958C15.7507 12.6958 15.6758 12.6207 15.6758 12.5267C15.6758 12.4366 15.7507 12.3579 15.8445 12.3579ZM15.8445 12.3879C15.9236 12.3879 15.9872 12.4518 15.9872 12.5267C15.9872 12.6058 15.9236 12.6696 15.8445 12.6696C15.7696 12.6696 15.7055 12.6058 15.7055 12.5267C15.7055 12.4518 15.7696 12.3879 15.8445 12.3879Z" fill="#FBB230"/>
<path d="M15.7808 12.6021V12.4595H15.8407C15.8556 12.4595 15.8669 12.4595 15.8746 12.4633C15.8818 12.4669 15.8859 12.4708 15.8894 12.4744C15.8931 12.4821 15.8969 12.4895 15.8969 12.497C15.8969 12.5082 15.8931 12.5195 15.8894 12.5234C15.8817 12.5308 15.8707 12.5347 15.8592 12.5382C15.8669 12.5421 15.8707 12.5459 15.8745 12.5495C15.8781 12.5533 15.8858 12.5608 15.8894 12.5721L15.9082 12.6021H15.8745L15.8517 12.5682C15.8478 12.557 15.8406 12.5534 15.8368 12.5496C15.8368 12.5459 15.833 12.5459 15.8293 12.5421C15.8255 12.5421 15.8217 12.5421 15.8142 12.5421H15.8104V12.6021H15.7808ZM15.8105 12.5195H15.8295C15.8443 12.5195 15.8518 12.5195 15.8557 12.5159C15.8592 12.5159 15.8634 12.5159 15.8634 12.512C15.867 12.5082 15.867 12.5046 15.867 12.5007C15.867 12.4969 15.867 12.4933 15.8634 12.4895C15.8592 12.4855 15.8557 12.4855 15.8518 12.482C15.8518 12.482 15.8444 12.482 15.8331 12.482H15.8106V12.5195H15.8105Z" fill="#FBB230"/>
<path fill-rule="evenodd" clip-rule="evenodd" d="M15.8065 10.9463C15.9003 10.9463 15.9753 11.0214 15.9753 11.1154C15.9753 11.2093 15.9003 11.2842 15.8065 11.2842C15.7126 11.2842 15.6377 11.2093 15.6377 11.1154C15.6377 11.0214 15.7126 10.9463 15.8065 10.9463ZM15.8065 10.9763C15.8855 10.9763 15.9492 11.0401 15.9492 11.1153C15.9492 11.1941 15.8855 11.258 15.8065 11.258C15.7275 11.258 15.6638 11.1941 15.6638 11.1153C15.6638 11.0402 15.7274 10.9763 15.8065 10.9763Z" fill="white"/>
<path d="M15.7427 11.1865V11.0474H15.8027C15.8178 11.0474 15.8292 11.0474 15.8366 11.0512C15.8404 11.0512 15.8475 11.0587 15.8514 11.0625C15.8553 11.0699 15.8588 11.0774 15.8588 11.0851C15.8588 11.0964 15.8553 11.1038 15.8475 11.1112C15.844 11.1187 15.8328 11.1225 15.8215 11.1264C15.8253 11.1299 15.8328 11.1338 15.8366 11.1377C15.8404 11.1412 15.844 11.1487 15.8514 11.16L15.8704 11.1865H15.8365L15.8139 11.1564C15.8065 11.1451 15.8027 11.1377 15.7988 11.1377C15.7952 11.1338 15.7952 11.1299 15.7916 11.1299C15.7875 11.1299 15.7839 11.1299 15.7765 11.1299H15.769V11.1864L15.7427 11.1865ZM15.7691 11.1077H15.7917C15.8065 11.1077 15.814 11.1077 15.8178 11.1039C15.8215 11.1039 15.8253 11.1 15.8253 11.1C15.8292 11.0964 15.8291 11.0925 15.8291 11.0887C15.8291 11.0851 15.8253 11.0774 15.8253 11.0774C15.8215 11.0738 15.8178 11.0699 15.814 11.0699C15.8102 11.0699 15.8027 11.0699 15.7917 11.0699H15.7692L15.7691 11.1077Z" fill="white"/>
<path fill-rule="evenodd" clip-rule="evenodd" d="M13.3931 11.2125L13.637 9.93604H13.941L13.9787 10.0674C14.035 10.0109 14.1288 9.93604 14.3166 9.93604L14.2227 10.274C14.1401 10.274 14.0123 10.2588 13.9075 10.5066C13.8287 10.6945 13.7909 11.006 13.7496 11.2125H13.3931Z" fill="white"/>
<path fill-rule="evenodd" clip-rule="evenodd" d="M8.78974 9.61694H9.12733L9.05237 9.95483H9.24017L9.18378 10.2176H9.01495L8.92103 10.7246C8.90234 10.8186 8.92103 10.9125 9.10882 10.8747L9.0714 11.1565C8.8687 11.3104 8.46292 11.1978 8.52676 10.8186L8.78974 9.61694Z" fill="white"/>
<path fill-rule="evenodd" clip-rule="evenodd" d="M10.2955 10.6493C10.333 10.4428 10.427 9.93604 9.82254 9.93604C9.2595 9.93604 9.18432 10.4992 9.18432 10.5741C9.16581 10.6493 9.16581 11.2125 9.76632 11.2125C9.91641 11.2125 10.1268 11.1938 10.2206 11.1563L10.2769 10.8933C10.2206 10.9123 10.0291 10.931 9.87899 10.931C9.74764 10.931 9.52242 10.931 9.55985 10.6493L10.2955 10.6493Z" fill="white"/>
<path fill-rule="evenodd" clip-rule="evenodd" d="M6.1993 11.2126L6.4997 9.6731H5.91401L5.50096 10.6119L5.42581 9.6731H4.88148L4.58105 11.2126H4.91892L5.14441 10.105L5.23829 11.2126H5.55742L6.04538 10.1237L5.83882 11.2126H6.1993Z" fill="white"/>
<path fill-rule="evenodd" clip-rule="evenodd" d="M6.593 9.97356L6.53678 10.2553C6.6307 10.2553 6.85586 10.2176 6.96847 10.2176C7.08113 10.2176 7.23122 10.1989 7.17506 10.3867C7.08113 10.3867 6.46154 10.2928 6.36767 10.8373C6.31535 11.1977 6.74325 11.3292 7.00595 11.1565L7.0436 11.2314H7.36251L7.49409 10.5368C7.63294 9.90966 7.02858 9.89837 6.593 9.97356Z" fill="white"/>
<path fill-rule="evenodd" clip-rule="evenodd" d="M12.1836 10.0863C12.0972 10.0336 12.0446 10.0336 11.9358 10.0336C11.8306 10.0336 11.5828 10.1389 11.5489 10.4204C11.4963 10.7734 11.7254 10.9312 12.0595 10.826L12.1498 11.1265C11.5792 11.4118 11.0345 10.9687 11.2148 10.2777C11.3611 9.75578 12.052 9.44046 12.3976 9.87227L12.1836 10.0863Z" fill="white"/>
<path fill-rule="evenodd" clip-rule="evenodd" d="M15.1607 10.0864C14.2407 9.39538 13.8839 11.2128 14.5973 11.2128C14.71 11.2128 14.8228 11.1566 14.8977 11.1189L14.9352 11.2128H15.3108L15.6112 9.59814H15.2544L15.1607 10.0864Z" fill="white"/>
<path fill-rule="evenodd" clip-rule="evenodd" d="M12.4538 9.97356L12.3976 10.2553C12.4912 10.2553 12.7168 10.2176 12.8291 10.2176C12.942 10.2176 13.0733 10.1989 13.0358 10.3867C12.942 10.3867 12.3225 10.2928 12.2289 10.8373C12.1908 11.1 12.4164 11.2314 12.5854 11.2314C12.7542 11.2314 12.8106 11.194 12.8668 11.1565L12.9043 11.2314H13.2236L13.3549 10.5368C13.4977 9.90966 12.893 9.89837 12.4538 9.97356Z" fill="white"/>
<path fill-rule="evenodd" clip-rule="evenodd" d="M9.55957 10.4055H9.99132C10.0401 10.0637 9.63086 10.1314 9.55957 10.4055Z" fill="#EB2230"/>
<path fill-rule="evenodd" clip-rule="evenodd" d="M7.11938 10.6495C7.06293 10.6495 6.93158 10.612 6.81869 10.6872C6.70637 10.7621 6.66866 10.8935 6.80018 10.9312C6.91256 10.9686 7.06293 10.8935 7.10035 10.7808L7.11938 10.6495Z" fill="#EB2230"/>
<path fill-rule="evenodd" clip-rule="evenodd" d="M14.9921 10.2929C14.8795 10.1425 14.6355 10.2555 14.5603 10.5369C14.5042 10.7247 14.6168 10.8561 14.7294 10.8561C14.9659 10.8561 15.1086 10.4694 14.9921 10.2929Z" fill="#FBB230"/>
<path fill-rule="evenodd" clip-rule="evenodd" d="M12.999 10.6495C12.9429 10.6495 12.8115 10.612 12.6986 10.6872C12.5862 10.7621 12.5485 10.8935 12.6801 10.9312C12.7925 10.9686 12.9616 10.8935 12.9803 10.7808L12.999 10.6495Z" fill="#FBB230"/>
<path fill-rule="evenodd" clip-rule="evenodd" d="M10.2954 11.2314L10.3144 11.1L10.5397 9.95483H10.8398L10.8772 10.0862C10.9337 10.0298 11.0276 9.95483 11.2154 9.95483L11.1214 10.2928C11.0501 10.2928 10.8998 10.2776 10.7872 10.5781C10.7233 10.7508 10.6858 11.0438 10.652 11.2314H10.2954Z" fill="white"/>
<path fill-rule="evenodd" clip-rule="evenodd" d="M8.47837 10.2629H8.46318H8.44834L8.4335 10.2591L8.41837 10.2555H8.40324L8.38834 10.2516C8.32066 10.2442 8.26444 10.2403 8.19699 10.2442C8.0241 10.259 7.9492 10.3678 8.09545 10.4504C8.21189 10.5182 8.30215 10.5068 8.38066 10.5821C8.54977 10.7396 8.4633 11.0439 8.2755 11.1602L8.24192 11.1753L8.20444 11.1904L8.16318 11.2014L8.12576 11.2127C7.94542 11.2427 7.70146 11.2353 7.5249 11.1753L7.57367 10.9235C7.71631 10.9536 7.94926 11.0175 8.05803 10.9426C8.18198 10.8599 8.06932 10.7622 7.979 10.7209L7.93413 10.706L7.88926 10.6873C7.53241 10.5256 7.61527 10.0937 7.95287 10.0037C8.08805 9.97369 8.22324 9.97369 8.36227 9.98498H8.3884C8.42232 9.98859 8.45235 9.99249 8.48232 9.99988H8.49722L8.50851 10.0037H8.5198L8.52719 10.0076H8.53848L8.47837 10.2629Z" fill="white"/>
</g>
</g>
<defs>
<clipPath id="clip0_8_460">
<rect width="20" height="12.4928" fill="white" transform="translate(0.230225 4.07617)"/>
</clipPath>
</defs>
</svg>
