<svg width="49" height="48" viewBox="0 0 49 48" fill="none" xmlns="http://www.w3.org/2000/svg">
<rect x="0.22998" width="48" height="48" rx="24" fill="#F7F7F7"/>
<path fill-rule="evenodd" clip-rule="evenodd" d="M22.4095 20.3604C22.4095 19.589 23.0646 19.2923 24.1497 19.2923C25.7056 19.2923 27.6709 19.7473 29.2268 20.5582V15.9099C27.5276 15.2571 25.8489 15 24.1497 15C19.9938 15 17.23 17.0967 17.23 20.5978C17.23 26.0571 25.0095 25.1868 25.0095 27.5407C25.0095 28.4505 24.1906 28.7473 23.0442 28.7473C21.3449 28.7473 19.1749 28.0747 17.4552 27.1648V31.8725C19.3591 32.6637 21.2835 33 23.0442 33C27.3024 33 30.23 30.9626 30.23 27.422C30.2095 21.5275 22.4095 22.5758 22.4095 20.3604Z" fill="#635BFF"/>
</svg>
