<svg width="21" height="21" viewBox="0 0 21 21" fill="none" xmlns="http://www.w3.org/2000/svg">
<g clip-path="url(#clip0_8_499)">
<path d="M10.2305 20.8511C15.7533 20.8511 20.2305 16.3739 20.2305 10.8511C20.2305 5.32823 15.7533 0.851074 10.2305 0.851074C4.70762 0.851074 0.230469 5.32823 0.230469 10.8511C0.230469 16.3739 4.70762 20.8511 10.2305 20.8511Z" fill="#26A17B"/>
<path d="M15.6961 8.51732C15.1967 8.16295 14.6623 7.78482 14.1398 7.40982C14.128 7.40107 14.1167 7.39232 14.1023 7.38357C14.0411 7.3333 13.9718 7.29378 13.8973 7.2667L13.8911 7.26357C12.493 6.9205 11.0953 6.57592 9.69797 6.22982L5.95797 5.3067L5.85984 5.28045C5.74734 5.24857 5.61734 5.21295 5.47859 5.23045C5.44059 5.23627 5.40432 5.25035 5.37234 5.2717L5.33734 5.30107C5.29352 5.34601 5.26003 5.39998 5.23922 5.4592L5.23047 5.48295V5.61732L5.23672 5.63795C6.02422 7.87857 6.83297 10.1517 7.61297 12.3511C8.21359 14.0448 8.83797 15.7986 9.44672 17.5211C9.48422 17.6379 9.59109 17.7148 9.72422 17.7261H9.75297C9.81114 17.7276 9.86864 17.7134 9.91944 17.685C9.97024 17.6566 10.0125 17.6151 10.0417 17.5648L12.3292 14.1817C12.8861 13.3586 13.4436 12.5329 14.0011 11.7098L14.6855 10.6961C15.0605 10.1398 15.448 9.56545 15.8323 9.00607L15.8523 8.97732V8.9417C15.8611 8.8392 15.8636 8.6292 15.6961 8.51732ZM13.0161 9.75045C12.4786 10.0342 11.9305 10.3273 11.3786 10.6173L12.3436 9.56857C12.7448 9.1292 13.1636 8.67482 13.5736 8.22982L13.5823 8.22107C13.6167 8.1742 13.6605 8.13045 13.7067 8.08357C13.738 8.0517 13.773 8.0192 13.8048 7.98107C14.0186 8.13107 14.2348 8.28295 14.443 8.43232C14.593 8.54045 14.7461 8.6492 14.9023 8.75732C14.2714 9.08419 13.6426 9.41524 13.0161 9.75045ZM11.6361 9.60982C11.223 10.0636 10.7955 10.5292 10.3711 10.9892C9.54748 9.97576 8.72143 8.9643 7.89297 7.95482L6.78109 6.59857L6.77859 6.59545C6.69484 6.4992 6.61359 6.39357 6.53297 6.2942C6.48109 6.2267 6.42609 6.16232 6.37109 6.09482C6.70609 6.18232 7.04422 6.26482 7.37609 6.34357C7.66797 6.4142 7.97109 6.48732 8.26859 6.56357L13.2967 7.80232C12.7392 8.40607 12.1786 9.01795 11.6361 9.60982ZM10.183 15.3186C10.2148 15.0111 10.2498 14.6948 10.2786 14.3842C10.3048 14.1348 10.3305 13.8804 10.3567 13.6373C10.3967 13.2473 10.4405 12.8436 10.4755 12.4479L10.4836 12.3779C10.5123 12.1254 10.5411 11.8654 10.5586 11.6042C10.5922 11.5852 10.6271 11.5685 10.663 11.5542C10.7061 11.5342 10.7492 11.5167 10.7923 11.4904C11.4594 11.1349 12.1275 10.7814 12.7967 10.4298C13.4642 10.0786 14.1486 9.71482 14.8273 9.35482C14.2115 10.2594 13.5981 11.1656 12.9873 12.0736C12.4705 12.8373 11.9392 13.6254 11.4105 14.4017C11.203 14.7123 10.9861 15.0286 10.7811 15.3329C10.5498 15.6729 10.313 16.0211 10.0823 16.3704C10.1111 16.0186 10.1455 15.6642 10.183 15.3186ZM6.15797 6.78607C6.12047 6.68045 6.07922 6.57232 6.04484 6.46982C6.82484 7.42482 7.60984 8.38545 8.37547 9.3167C8.77109 9.79982 9.16672 10.2804 9.56234 10.7667C9.64047 10.8573 9.71859 10.9542 9.79359 11.0479C9.89172 11.1679 9.98984 11.2942 10.0967 11.4142C10.0617 11.7154 10.033 12.0204 10.0011 12.3129C9.98109 12.5179 9.96109 12.7236 9.93797 12.9317V12.9342C9.92922 13.0654 9.91172 13.1979 9.89734 13.3267L9.83109 13.9098L9.82797 13.9298C9.77609 14.5217 9.71234 15.1192 9.65172 15.6992C9.62609 15.9392 9.60297 16.1854 9.57672 16.4317C9.56234 16.3879 9.54547 16.3436 9.53047 16.3023C9.48644 16.1829 9.44414 16.0629 9.40359 15.9423L9.09422 15.0723L6.15734 6.78607" fill="white"/>
</g>
<defs>
<clipPath id="clip0_8_499">
<rect width="20" height="20" fill="white" transform="translate(0.22998 0.851074)"/>
</clipPath>
</defs>
</svg>
