<svg width="21" height="21" viewBox="0 0 21 21" fill="none" xmlns="http://www.w3.org/2000/svg">
<g clip-path="url(#clip0_8_506)">
<path d="M10.2302 20.8511C15.7531 20.8511 20.2302 16.3739 20.2302 10.8511C20.2302 5.32823 15.7531 0.851074 10.2302 0.851074C4.70738 0.851074 0.230225 5.32823 0.230225 10.8511C0.230225 16.3739 4.70738 20.8511 10.2302 20.8511Z" fill="#EB0029"/>
<path fill-rule="evenodd" clip-rule="evenodd" d="M5.70923 6.20896C5.80087 6.45252 9.66841 16.1544 9.67754 16.1636C9.68804 16.1741 15.2163 9.46829 15.2302 9.42815C15.2372 9.40807 13.3087 7.57813 13.2579 7.55657C13.2365 7.54751 11.5396 7.23252 9.48706 6.8566C7.43445 6.48068 5.74046 6.16974 5.7226 6.16565C5.69501 6.15931 5.69301 6.16582 5.70923 6.20896ZM9.84868 7.45723C11.3364 7.73004 12.5536 7.95909 12.5536 7.96623C12.5536 7.97942 10.5362 9.65854 10.4732 9.69781C10.4438 9.71615 10.2068 9.52727 8.79134 8.35712C6.91715 6.80779 7.10162 6.96234 7.12538 6.96168C7.13545 6.96141 8.36093 7.1844 9.84868 7.45723ZM8.48788 8.78726C9.7077 9.79734 10.2134 10.2272 10.2086 10.2499C10.2048 10.2675 10.0837 11.2648 9.93956 12.4661C9.79537 13.6675 9.67313 14.6632 9.66791 14.6789C9.66271 14.6945 9.00284 13.0621 8.20154 11.0513C7.40024 9.04043 6.73974 7.38318 6.73376 7.36851C6.72779 7.35382 6.73129 7.34517 6.74157 7.34926C6.75185 7.35334 7.5377 8.00045 8.48788 8.78726ZM13.7364 8.71642C14.0515 9.01445 14.3059 9.26154 14.3019 9.26557C14.2892 9.2782 11.2145 9.83054 11.1869 9.82515C11.1635 9.82057 13.1231 8.17459 13.152 8.17459C13.1584 8.17459 13.4215 8.41842 13.7364 8.71642ZM14.1906 9.86812C14.1005 9.9991 10.2095 14.7089 10.2058 14.6913C10.2034 14.6794 10.3164 13.7214 10.4571 12.5624L10.7129 10.4551L12.4192 10.1441C13.3577 9.97312 14.1461 9.8324 14.1713 9.83142C14.2131 9.82977 14.2147 9.83296 14.1906 9.86812Z" fill="white"/>
</g>
<defs>
<clipPath id="clip0_8_506">
<rect width="20" height="20" fill="white" transform="translate(0.22998 0.851074)"/>
</clipPath>
</defs>
</svg>
